<svg width="111" height="88" viewBox="0 0 111 88" fill="none" xmlns="http://www.w3.org/2000/svg">
<path d="M3.8995 82.585V72.9163H0.0712237V70.1208H11.2355V72.9163H7.42507V82.585H3.8995ZM10.4273 82.585L15.9293 70.1208H19.4015L24.9213 82.585H21.2533L16.9443 71.848H18.3331L14.0241 82.585H10.4273ZM13.4365 80.1634L14.3446 77.5637H20.4342L21.3423 80.1634H13.4365ZM25.2976 82.585V80.377L32.6337 71.6699L33.061 72.9163H25.4579V70.1208H36.1948V72.3287L28.8588 81.0358L28.4315 79.7894H36.4619V82.585H25.2976ZM36.5102 82.585L42.0122 70.1208H45.4844L51.0042 82.585H47.3362L43.0272 71.848H44.416L40.107 82.585H36.5102ZM39.5194 80.1634L40.4275 77.5637H46.5171L47.4252 80.1634H39.5194Z" fill="#0084C0"/>
<path d="M60.6396 70.1208H64.1652V82.585H60.6396V70.1208ZM55.832 82.585H52.3065V70.1208H55.832V82.585ZM60.8889 77.7239H55.5828V74.8038H60.8889V77.7239ZM72.9376 82.8342C71.9404 82.8342 71.0205 82.674 70.1776 82.3535C69.3348 82.033 68.5988 81.5819 67.9697 81.0002C67.3524 80.4067 66.8717 79.7182 66.5274 78.9347C66.1832 78.1513 66.0111 77.2907 66.0111 76.3529C66.0111 75.4151 66.1832 74.5545 66.5274 73.771C66.8717 72.9876 67.3524 72.305 67.9697 71.7233C68.5988 71.1298 69.3348 70.6728 70.1776 70.3523C71.0205 70.0318 71.9404 69.8715 72.9376 69.8715C73.9466 69.8715 74.8665 70.0318 75.6975 70.3523C76.5403 70.6728 77.2703 71.1298 77.8876 71.7233C78.5049 72.305 78.9856 72.9876 79.3299 73.771C79.686 74.5545 79.8641 75.4151 79.8641 76.3529C79.8641 77.2907 79.686 78.1572 79.3299 78.9526C78.9856 79.736 78.5049 80.4186 77.8876 81.0002C77.2703 81.5819 76.5403 82.033 75.6975 82.3535C74.8665 82.674 73.9466 82.8342 72.9376 82.8342ZM72.9376 79.9141C73.4124 79.9141 73.8516 79.831 74.2552 79.6648C74.6707 79.4986 75.0268 79.2612 75.3235 78.9526C75.6322 78.632 75.8696 78.2522 76.0358 77.813C76.2138 77.3738 76.3029 76.8871 76.3029 76.3529C76.3029 75.8068 76.2138 75.3201 76.0358 74.8928C75.8696 74.4536 75.6322 74.0797 75.3235 73.771C75.0268 73.4505 74.6707 73.2072 74.2552 73.041C73.8516 72.8748 73.4124 72.7917 72.9376 72.7917C72.4627 72.7917 72.0176 72.8748 71.6021 73.041C71.1985 73.2072 70.8424 73.4505 70.5338 73.771C70.237 74.0797 69.9996 74.4536 69.8215 74.8928C69.6553 75.3201 69.5722 75.8068 69.5722 76.3529C69.5722 76.8871 69.6553 77.3738 69.8215 77.813C69.9996 78.2522 70.237 78.632 70.5338 78.9526C70.8424 79.2612 71.1985 79.4986 71.6021 79.6648C72.0176 79.831 72.4627 79.9141 72.9376 79.9141ZM81.7106 82.585V70.1208H84.613L89.7767 78.5964H88.2454L93.2666 70.1208H96.169L96.2046 82.585H92.9639L92.9283 75.0531H93.4803L89.7233 81.3564H88.1563L84.2924 75.0531H84.9691V82.585H81.7106ZM101.94 74.9462H107.727V77.5815H101.94V74.9462ZM102.189 79.8607H108.706V82.585H98.6992V70.1208H108.475V72.8451H102.189V79.8607Z" fill="#96C22B"/>
<path fill-rule="evenodd" clip-rule="evenodd" d="M55.0344 29.7007L36.416 43.4529L37.0507 55.7241C37.22 60.1248 39.8012 61.084 41.0706 61.0134H67.9403C70.8177 61.1827 71.9602 59.2503 72.1718 58.263L72.5949 54.6663L73.4412 43.4529L55.0344 29.7007ZM49.5334 41.1256H54.188V45.7802H49.5334V41.1256ZM60.9584 41.1255H56.3038V45.7801H60.9584V41.1255ZM56.3038 47.8959H60.9584V52.5505H56.3038V47.8959ZM54.1882 47.8959H49.5336V52.5505H54.1882V47.8959Z" fill="#96C22B"/>
<path fill-rule="evenodd" clip-rule="evenodd" d="M34.5119 13.4094L36.2045 37.9519H36.2668L40.9266 34.3511L39.6028 19.14C39.4616 17.517 40.6628 16.0868 42.2858 15.9456C43.9088 15.8043 45.339 17.0055 45.4802 18.6285L46.4754 30.0634L52.1822 25.6536L52.19 18.3437C52.1918 16.7146 53.5139 15.3953 55.143 15.3971C56.7721 15.3988 58.0914 16.7209 58.0897 18.3501L58.0812 26.2863L63.8315 30.4461L65.0541 18.1851C65.2158 16.564 66.661 15.3809 68.2821 15.5426C69.9032 15.7042 71.0863 17.1494 70.9247 18.7705L69.3615 34.4465L74.2071 37.9519H74.2875L76.1917 12.7747H80V8.12012H77.8843V9.60113H32.1846V8.12012H30.0688V13.4094H34.5119Z" fill="#0084C0"/>
<path fill-rule="evenodd" clip-rule="evenodd" d="M48.4133 1.77285C48.4133 1.07176 48.9817 0.503418 49.6828 0.503418H60.3863C61.0874 0.503418 61.6558 1.07176 61.6558 1.77285V4.73481H77.4613V8.54312H32.6079V4.73481H48.4133V1.77285ZM49.3538 4.73481H60.7151C60.7711 4.55109 60.8013 4.35607 60.8013 4.154V3.33679C60.8013 2.23943 59.9117 1.34985 58.8144 1.34985H51.2545C50.1571 1.34985 49.2676 2.23943 49.2676 3.33679V4.154C49.2676 4.35607 49.2977 4.55109 49.3538 4.73481Z" fill="#0084C0"/>
</svg>
